<svg width="225" height="225" viewBox="0 0 225 225" fill="none" xmlns="http://www.w3.org/2000/svg">
<path d="M112.824 35.6937L56 58.3761V74.3357V90.2953L101.23 119.24L146.449 148.174L146.46 149.858V151.541L112.925 164.908L79.4007 178.286L79.367 168.87L79.3446 159.454H67.6723H56V186.098V212.742L67.0774 208.32C73.1829 205.884 98.7722 195.682 123.957 185.626L169.749 167.355V151.373V135.391L124.575 106.479L79.4007 77.568L79.367 75.8733L79.3333 74.1785L83.5758 72.495C85.9102 71.5635 100.994 65.5478 117.089 59.128C133.183 52.6971 146.382 47.4445 146.404 47.4445C146.438 47.4445 146.46 51.687 146.46 56.8721V66.2997H158.132H169.805V39.6443C169.805 24.9866 169.771 12.9889 169.726 13.0001C169.67 13.0113 144.07 23.2133 112.824 35.6937Z" fill="white"/>
</svg>
