<svg width="408" height="233" viewBox="0 0 408 233" fill="none" xmlns="http://www.w3.org/2000/svg">
<path d="M80.8005 22.9069C53.4804 33.815 24.1242 45.5483 15.5544 48.9651L0 55.1799L0.0257737 73.5534L0.0644342 91.9398L51.934 125.154L103.804 158.368V160.289V162.211L65.3363 177.58C44.1761 186.025 26.8304 192.91 26.7789 192.885C26.7144 192.859 26.6758 187.985 26.6758 182.067V171.314H13.3379H0V201.872C0 218.685 0.0515474 232.43 0.103095 232.43C0.167529 232.43 29.5495 220.722 65.4136 206.397L130.608 180.378L130.647 162.056L130.673 143.747L78.6742 110.442L26.6758 77.1507V75.3069C26.6758 73.9789 26.7144 73.4374 26.8433 73.36C27.0108 73.2569 103.275 42.7761 103.649 42.673C103.855 42.6085 103.868 43.1758 103.868 53.4521V64.2957L117.244 64.2699L130.608 64.2312L130.647 33.6345C130.66 16.8211 130.634 3.0506 130.582 3.06349C130.518 3.06349 108.121 11.9988 80.8005 22.9069Z" fill="#21615D"/>
<path d="M270.252 114.443L270.309 180.654H277.511H284.714L284.809 169.812L284.904 158.969L288.391 156.012C290.325 154.401 291.955 153.093 292.031 153.112C292.107 153.15 296.75 159.216 302.342 166.627C307.934 174.02 312.653 180.237 312.805 180.408C313.089 180.73 313.753 180.749 321.524 180.749C326.13 180.749 329.921 180.711 329.921 180.654C329.921 180.598 323.78 172.352 316.255 162.344C308.749 152.316 302.664 144.052 302.759 143.976C302.835 143.9 308.768 138.877 315.952 132.811L328.992 121.798H318.7L308.408 121.817L296.656 131.655L284.904 141.512L284.847 94.8813L284.809 48.2509H277.511H270.214L270.252 114.443Z" fill="#21615D"/>
<path d="M223.274 120.303C215.335 121.139 209.49 123.227 204.191 127.139C197.95 131.753 193.99 137.924 192.5 145.349C191.972 147.988 192.029 154.729 192.594 157.33C194.329 165.362 198.591 171.515 205.737 176.319C211.753 180.344 218.748 182.281 227.271 182.281C235.814 182.281 243.092 180.249 249.032 176.224C257.423 170.527 261.986 162.571 262.514 152.659C262.948 144.532 260.214 136.842 254.84 131.145C249.428 125.373 242.64 121.936 234.079 120.645C232.212 120.36 224.896 120.132 223.274 120.303ZM230.911 134.26C236.04 134.886 240.019 136.747 243.281 140.013C246.524 143.279 247.882 146.564 247.882 151.273C247.882 155.697 246.467 159.21 243.45 162.267C239.34 166.445 234.38 168.287 227.234 168.287C223.632 168.287 221.464 167.983 218.805 167.09C213.337 165.248 209.113 161.337 207.51 156.59C206.171 152.64 206.454 147.57 208.226 144.02C210.791 138.874 216.58 135.114 223.274 134.26C225.16 134.032 229.044 134.013 230.911 134.26Z" fill="#21615D"/>
<path d="M135.49 128.581V135.385H146.672H157.853V158.067V180.749H165.055H172.257V158.067V135.385H183.344H194.432V128.581V121.776H164.961H135.49V128.581Z" fill="#21615D"/>
<path d="M329.921 151.263V180.749H359.009H388.098V173.85V166.951L366.291 166.913L344.465 166.857V161.659V156.461L358.021 156.404L371.557 156.366V149.467V142.568H357.964H344.37V139.166V135.763H365.093H385.816V128.77V121.776H357.869H329.921V151.263Z" fill="#21615D"/>
<path d="M393.456 151.263V180.749H400.728H408V151.263V121.776H400.728H393.456V151.263Z" fill="#21615D"/>
</svg>
