<svg width="96" height="96" viewBox="0 0 96 96" fill="none" xmlns="http://www.w3.org/2000/svg">
<rect width="96" height="96" rx="48" fill="#21615D"/>
<path d="M48.02 26.5522L32.1709 32.935V37.4261V41.9171L44.7863 50.0623L57.3986 58.2043L57.4017 58.678V59.1518L48.0481 62.9133L38.6977 66.6779L38.6883 64.0281L38.6821 61.3783H35.4265H32.1709V68.8761V76.3738L35.2606 75.1294C36.9635 74.4441 44.1007 71.5732 51.1253 68.7434L63.8972 63.6018V59.1044V54.607L51.2975 46.4713L38.6977 38.3356L38.6883 37.8587L38.6789 37.3818L39.8622 36.9081C40.5133 36.646 44.7206 34.9531 49.2095 33.1466C53.6985 31.3369 57.3798 29.8589 57.386 29.8589C57.3954 29.8589 57.4017 31.0527 57.4017 32.5118V35.1647H60.6573H63.9129V27.6639C63.9129 23.5392 63.9035 20.163 63.8909 20.1661C63.8753 20.1693 56.7349 23.0402 48.02 26.5522Z" fill="white"/>
</svg>
