<svg width="172" height="300" viewBox="0 0 172 300" fill="none" xmlns="http://www.w3.org/2000/svg">
<path d="M85.4041 34.2257L0.168457 68.2493V92.1887V116.128L68.0136 159.546L135.842 202.946L135.859 205.471V207.997L85.5557 228.047L35.2695 248.115L35.219 233.99L35.1853 219.865H17.6769H0.168457V259.832V299.798L16.7846 293.165C25.9429 289.512 64.3267 274.209 102.104 259.125L170.791 231.717V207.744V183.771L103.03 140.404L35.2695 97.0371L35.219 94.4951L35.1685 91.953L41.5321 89.4277C45.0338 88.0304 67.66 79.0068 91.8014 69.3772C115.943 59.7308 135.741 51.852 135.775 51.852C135.825 51.852 135.859 58.2156 135.859 65.9934V80.1348H153.367H170.876V40.1516C170.876 18.1651 170.825 0.168461 170.758 0.185296C170.673 0.202131 132.273 15.5052 85.4041 34.2257Z" fill="#21615D"/>
</svg>
