<svg width="408" height="300" viewBox="0 0 408 300" fill="none" xmlns="http://www.w3.org/2000/svg">
<g clip-path="url(#clip0)">
<path d="M105.724 26.0943C70.0337 40.3367 31.6835 55.6566 20.4882 60.1179L0.168335 68.2323L0.202005 92.2222L0.25251 116.229L68.0135 159.596L135.774 202.963V205.471V207.98L85.5219 228.047C57.8788 239.074 35.2188 248.064 35.1515 248.03C35.0673 247.997 35.0168 241.633 35.0168 233.906V219.865H17.5926H0.168335V259.764C0.168335 281.717 0.235675 299.663 0.303015 299.663C0.38719 299.663 38.771 284.377 85.6229 265.673L170.791 231.7L170.842 207.778L170.875 183.872L102.946 140.387L35.0168 96.9192V94.5118C35.0168 92.7778 35.0673 92.0707 35.2357 91.9697C35.4545 91.835 135.084 52.0371 135.572 51.9024C135.842 51.8182 135.859 52.5589 135.859 65.9765V80.1347L153.333 80.101L170.791 80.0505L170.842 40.101C170.859 18.1482 170.825 0.168375 170.758 0.18521C170.673 0.18521 141.414 11.8519 105.724 26.0943Z" fill="#21615D"/>
<path d="M284.546 149.023L284.596 207.828H290.993H297.391L297.475 198.199L297.559 188.569L300.657 185.943C302.374 184.512 303.822 183.35 303.889 183.367C303.956 183.401 308.081 188.788 313.047 195.37C318.014 201.936 322.205 207.458 322.34 207.609C322.593 207.896 323.182 207.912 330.084 207.912C334.175 207.912 337.542 207.879 337.542 207.828C337.542 207.778 332.088 200.454 325.404 191.566C318.737 182.66 313.333 175.32 313.418 175.252C313.485 175.185 318.754 170.724 325.135 165.337L336.717 155.555H327.576L318.434 155.572L307.997 164.31L297.559 173.064L297.508 131.65L297.475 90.2356H290.993H284.512L284.546 149.023Z" fill="#21615D"/>
<path d="M243.013 154.31C235.926 155.05 230.707 156.902 225.976 160.37C220.404 164.461 216.869 169.933 215.539 176.515C215.067 178.855 215.118 184.832 215.623 187.138C217.172 194.259 220.976 199.714 227.357 203.973C232.727 207.542 238.973 209.259 246.582 209.259C254.209 209.259 260.707 207.458 266.01 203.889C273.502 198.838 277.576 191.785 278.047 182.997C278.434 175.791 275.993 168.973 271.195 163.923C266.364 158.805 260.303 155.758 252.66 154.613C250.993 154.36 244.461 154.158 243.013 154.31ZM249.832 166.683C254.411 167.239 257.963 168.889 260.875 171.784C263.771 174.68 264.983 177.593 264.983 181.768C264.983 185.69 263.72 188.805 261.027 191.515C257.357 195.219 252.929 196.852 246.549 196.852C243.333 196.852 241.397 196.582 239.024 195.791C234.141 194.158 230.37 190.69 228.939 186.481C227.744 182.98 227.997 178.485 229.579 175.337C231.869 170.774 237.037 167.441 243.013 166.683C244.697 166.481 248.165 166.465 249.832 166.683Z" fill="#21615D"/>
<path d="M164.983 161.448V167.508H174.916H184.848V187.71V207.912H191.246H197.643V187.71V167.508H207.491H217.34V161.448V155.387H191.162H164.983V161.448Z" fill="#21615D"/>
<path d="M337.879 181.65V207.912H363.636H389.394V201.768V195.623L370.084 195.589L350.758 195.539V190.909V186.279L362.761 186.229L374.747 186.195V180.05V173.906H362.71H350.673V170.875V167.845H369.024H387.374V161.616V155.387H362.626H337.879V181.65Z" fill="#21615D"/>
<path d="M394.444 181.65V207.912H400.926H407.407V181.65V155.387H400.926H394.444V181.65Z" fill="#21615D"/>
</g>
<defs>
<clipPath id="clip0">
<rect width="407.576" height="300" fill="white"/>
</clipPath>
</defs>
</svg>
